<svg width="15" height="15" viewBox="0 0 15 15" fill="none" xmlns="http://www.w3.org/2000/svg">
<g opacity="0.6">
<g clip-path="url(#clip0_1_242)">
<path fill-rule="evenodd" clip-rule="evenodd" d="M5.12822 2.49159C2.47872 4.02167 1.56988 7.41084 3.10055 10.0609C4.63005 12.711 8.0198 13.6187 10.6699 12.0886C13.32 10.5585 14.2282 7.17051 12.6981 4.52042C11.168 1.86976 7.7783 0.96209 5.12822 2.49159Z" stroke="white" stroke-width="0.583333" stroke-linecap="round"/>
<path fill-rule="evenodd" clip-rule="evenodd" d="M8.26363 7.92124C7.9148 8.12249 7.46972 8.00349 7.26788 7.65465C7.06663 7.30524 7.18563 6.86015 7.53505 6.65832C7.88388 6.45707 8.32838 6.57665 8.5308 6.92549C8.73205 7.27432 8.61247 7.71999 8.26363 7.92124Z" stroke="white" stroke-width="0.583333" stroke-linecap="round"/>
<path fill-rule="evenodd" clip-rule="evenodd" d="M4.03736 4.90891C3.9732 4.87624 3.89445 4.89491 3.8577 4.95733C3.8227 5.01974 3.84603 5.09616 3.90611 5.13641L7.20836 7.29708L7.5642 6.68574L4.03736 4.90891Z" fill="white"/>
<path fill-rule="evenodd" clip-rule="evenodd" d="M4.37804 7.29012C4.37804 6.64962 4.55304 6.05112 4.8517 5.53312L4.38387 5.26187C4.03737 5.85978 3.83612 6.55103 3.83612 7.29012C3.83612 8.20303 4.13537 9.06812 4.7012 9.79028C4.79337 9.90812 4.9637 9.92853 5.08095 9.83695C5.19879 9.7442 5.2192 9.57445 5.12762 9.45662C4.63762 8.8307 4.37804 8.08112 4.37804 7.29012ZM7.89904 3.22778C6.66762 3.22778 5.56395 3.78078 4.81845 4.64937L5.31954 4.90195C5.96354 4.20778 6.87995 3.76912 7.89904 3.76912C9.84037 3.76912 11.42 5.34878 11.42 7.29012C11.42 8.08112 11.161 8.83012 10.6705 9.45662C10.5783 9.57445 10.5987 9.7442 10.7165 9.83637C10.7661 9.87545 10.825 9.8947 10.8834 9.8947C10.9639 9.8947 11.0438 9.85853 11.0969 9.79028C11.6627 9.06812 11.962 8.20362 11.962 7.29012C11.962 5.05012 10.1396 3.22778 7.89904 3.22778Z" fill="white"/>
</g>
</g>
<defs>
<clipPath id="clip0_1_242">
<rect width="14" height="14" fill="white" transform="translate(0.899048 0.290039)"/>
</clipPath>
</defs>
</svg>
