<svg width="40" height="40" viewBox="0 0 40 40" fill="none" xmlns="http://www.w3.org/2000/svg">
<g clip-path="url(#clip0_1_209)">
<path fill-rule="evenodd" clip-rule="evenodd" d="M12.1133 38.5533C12.0581 38.6482 12.029 38.7561 12.0289 38.8659C12.0287 38.9757 12.0576 39.0836 12.1126 39.1787C12.1676 39.2737 12.2467 39.3526 12.3419 39.4073C12.4372 39.4619 12.5452 39.4905 12.655 39.49C12.7647 39.4899 12.8724 39.4612 12.9675 39.4065C13.0625 39.3518 13.1415 39.2731 13.1967 39.1783L19.2183 28.7483H17.7733L12.1133 38.5533ZM19.92 33.6833C19.8652 33.7782 19.8364 33.8858 19.8365 33.9954C19.8366 34.105 19.8655 34.2126 19.9205 34.3074C19.9754 34.4022 20.0543 34.4809 20.1494 34.5355C20.2444 34.59 20.3521 34.6186 20.4617 34.6183C20.5713 34.6183 20.6791 34.5895 20.7741 34.5348C20.8692 34.4801 20.9482 34.4014 21.0033 34.3066L24.2117 28.7483H22.7683L19.92 33.6833ZM9.925 33.6833C9.87022 33.7782 9.84141 33.8858 9.84149 33.9954C9.84157 34.105 9.87054 34.2126 9.92546 34.3074C9.98039 34.4022 10.0593 34.4809 10.1544 34.5355C10.2494 34.59 10.3571 34.6186 10.4667 34.6183C10.5763 34.6183 10.6841 34.5895 10.7791 34.5348C10.8742 34.4801 10.9532 34.4014 11.0083 34.3066L14.2167 28.75H12.7733L9.925 33.6833Z" fill="#61B6DF"/>
<path fill-rule="evenodd" clip-rule="evenodd" d="M21.5533 15.95C21.6415 16.037 21.7016 16.1484 21.7262 16.2699C21.7507 16.3913 21.7385 16.5173 21.6911 16.6318C21.6437 16.7462 21.5632 16.844 21.46 16.9125C21.3568 16.9811 21.2356 17.0173 21.1117 17.0166C21.0295 17.017 20.9482 17.001 20.8723 16.9695C20.7965 16.938 20.7277 16.8917 20.67 16.8333C19.9736 16.145 19.1236 15.632 18.19 15.3366V15.3383C17.5653 15.1239 16.9104 15.0103 16.25 15.0016C13.7933 15.0016 11.6933 16.435 10.6783 18.5016C11.3517 18.7633 11.9717 19.1483 12.4933 19.6683C12.5515 19.7262 12.5976 19.795 12.6291 19.8708C12.6606 19.9466 12.6768 20.0279 12.6768 20.11C12.6768 20.192 12.6606 20.2733 12.6291 20.3491C12.5976 20.4249 12.5515 20.4937 12.4933 20.5516C12.4358 20.6102 12.3671 20.6568 12.2914 20.6887C12.2158 20.7206 12.1345 20.7372 12.0524 20.7375C11.9702 20.7378 11.8888 20.7218 11.8129 20.6905C11.737 20.6592 11.668 20.6131 11.61 20.555C11.2107 20.1596 10.7325 19.853 10.2067 19.655L10.23 19.6616C9.75917 19.4734 9.25707 19.3756 8.75 19.3733C7.67256 19.3733 6.63925 19.8013 5.87738 20.5632C5.11551 21.325 4.6875 22.3583 4.6875 23.4358C4.6875 24.5132 5.11551 25.5465 5.87738 26.3084C6.63925 27.0703 7.67256 27.4983 8.75 27.4983H26.25C27.3991 27.4983 28.5369 27.272 29.5985 26.8322C30.6601 26.3925 31.6247 25.748 32.4372 24.9355C33.2497 24.123 33.8942 23.1584 34.3339 22.0968C34.7737 21.0352 35 19.8974 35 18.7483C35 17.5992 34.7737 16.4614 34.3339 15.3998C33.8942 14.3382 33.2497 13.3736 32.4372 12.5611C31.6247 11.7486 30.6601 11.1041 29.5985 10.6643C28.5369 10.2246 27.3991 9.99829 26.25 9.99829C22.6333 9.99829 20.1833 12.0233 18.7783 14.195C18.7783 14.195 20.1617 14.5833 21.5533 15.95Z" fill="#879CB2"/>
</g>
<defs>
<clipPath id="clip0_1_209">
<rect width="40" height="40" fill="white"/>
</clipPath>
</defs>
</svg>
